#Unknown ASF file
:ROOT_YZX
:FOOT_3DOF
:FULLY-SPECIFIED
:DEGREES
691
root -6.19313 17.4654 38.2856 -5.88189 -40.4833 -5.11267
lfemur -19.6141 6.31103 -8.91374
ltibia 62.8495
lfoot -8.26331 0 -4.99945
ltoes -19.1124
rfemur -3.6657 3.87664 32.4143
rtibia 33.46
rfoot -16.3675 0 -8.0917
rtoes -14.328
lowerback 10.6216 0.342057 1.75614
upperback 0.967272 0.859343 4.74338
thorax -5.00186 0.413046 3.85974
lowerneck -12.575 -7.79735 -17.7054
upperneck 21.0425 -10.2371 13.1041
head 10.4208 -4.90187 6.25282
lclavicle -6.4605e-015 -7.31528e-014
lhumerus -41.093 10.6274 86.2393
lradius 29.73
lwrist -4.28612
lhand -9.95366 29.3223
lfingers 7.12502
lthumb 16.0283 58.6793
rclavicle -6.4605e-015 -7.31528e-014
rhumerus -30.9853 -6.95646 -76.866
rradius 30.5151
rwrist -3.29616
rhand -22.6919 10.5042
rfingers 7.12502
rthumb 3.74067 -19.4428
692
root -6.44103 17.5438 38.6943 -5.67035 -41.512 -5.1326
lfemur -20.6122 5.63741 -9.84769
ltibia 54.8758
lfoot -10.3444 0 -1.16332
ltoes -11.8763
rfemur -0.857515 3.17508 31.9399
rtibia 30.9881
rfoot -17.1075 0 -6.32771
rtoes -10.4355
lowerback 9.93025 0.775168 2.69214
upperback 1.07339 1.48358 4.35589
thorax -4.50285 0.700478 2.83011
lowerneck -11.8159 -7.80781 -17.8607
upperneck 20.6908 -10.3335 13.1703
head 10.1793 -4.97759 6.29524
lclavicle 5.26034e-014 -2.3059e-014
lhumerus -41.6401 11.9503 84.8127
lradius 27.7226
lwrist -5.7016
lhand -9.88746 29.2222
lfingers 7.12502
lthumb 16.092 58.5741
rclavicle 5.26034e-014 -2.3059e-014
rhumerus -28.6274 -9.72455 -76.4293
rradius 29.4446
rwrist -0.225416
rhand -22.6941 11.8509
rfingers 7.12502
rthumb 3.73851 -18.096
693
root -6.66671 17.5987 39.011 -4.54681 -42.2348 -6.43394
lfemur -22.6888 4.73566 -8.96326
ltibia 45.6379
lfoot -10.2963 0 1.9033
ltoes -12.429
rfemur 0.763605 3.5536 33.265
rtibia 28.0227
rfoot -16.2944 0 -5.75058
rtoes -9.31365
lowerback 9.56047 0.995212 4.01884
upperback 0.668578 1.92919 4.6419
thorax -4.70114 0.893109 2.32863
lowerneck -11.152 -7.78905 -18.608
upperneck 20.2895 -10.2904 13.4355
head 9.96379 -5.01092 6.53111
lclavicle 9.405e-015 3.97569e-014
lhumerus -42.4904 13.366 83.6054
lradius 26.4255
lwrist -7.19234
lhand -9.7863 29.2604
lfingers 7.12502
lthumb 16.1894 58.6044
rclavicle 9.405e-015 3.97569e-014
rhumerus -28.1393 -5.67443 -77.4524
rradius 32.285
rwrist -2.32737
rhand -22.8583 10.9227
rfingers 7.12502
rthumb 3.57996 -19.027
694
root -6.89919 17.6364 39.3467 -3.64384 -43.3044 -7.31057
lfemur -23.7028 4.30486 -8.41886
ltibia 35.6516
lfoot -9.40254 0 3.71512
ltoes -11.7063
rfemur 2.76842 4.15521 34.0725
rtibia 24.9137
rfoot -15.6555 0 -5.80984
rtoes -12.4155
lowerback 9.32089 1.28348 4.89129
upperback 0.419417 2.40399 4.71016
thorax -4.80231 1.10531 1.8527
lowerneck -11.6151 -7.96764 -19.2316
upperneck 20.9808 -10.4384 13.5974
head 10.3774 -5.10604 6.68503
lclavicle 4.10118e-014 4.21423e-014
lhumerus -43.1483 13.9443 82.6079
lradius 25.7834
lwrist -7.06518
lhand -9.35885 29.5824
lfingers 7.12502
lthumb 16.601 58.8924
rclavicle 4.10118e-014 4.21423e-014
rhumerus -26.8413 -3.46744 -78.2383
rradius 33.5657
rwrist -2.61665
rhand -22.0703 11.9697
rfingers 7.12502
rthumb 4.34089 -17.9658
695
root -7.15534 17.652 39.8015 -3.39586 -44.6513 -6.20191
lfemur -23.1979 3.47858 -10.1773
ltibia 27.083
lfoot -11.6752 0 4.16225
ltoes -13.689
rfemur 5.99395 3.07476 31.7344
rtibia 21.94
rfoot -16.4866 0 -2.87185
rtoes -13.642
lowerback 8.49371 1.73803 4.45629
upperback 0.42965 2.88837 4.33412
thorax -4.32646 1.36161 1.66105
lowerneck -11.1832 -8.18889 -20.8769
upperneck 21.2486 -10.6295 14.0183
head 10.5635 -5.30935 7.11185
lclavicle 2.7395e-014 1.03368e-014
lhumerus -44.4665 14.3293 82.1718
lradius 25.798
lwrist -6.68095
lhand -9.86699 29.3711
lfingers 7.12502
lthumb 16.1117 58.7214
rclavicle 2.7395e-014 1.03368e-014
rhumerus -25.8808 -2.29073 -78.2752
rradius 34.307
rwrist -1.64572
rhand -22.2033 12.622
rfingers 7.12502
rthumb 4.21249 -17.3161
696
root -7.37726 17.6013 40.129 -2.26207 -45.3277 -7.4776
lfemur -25.7414 3.9552 -9.41961
ltibia 23.6596
lfoot -13.6585 0 3.11929
ltoes -16.8077
rfemur 7.26126 3.75515 32.9914
rtibia 19.6066
rfoot -16.2393 0 -3.1292
rtoes -13.7588
lowerback 8.32401 1.71161 5.27557
upperback 0.0482794 2.95318 4.68055
thorax -4.6097 1.36895 1.56107
lowerneck -12.0998 -8.15038 -20.0748
upperneck 21.8004 -10.3036 12.8464
head 10.7582 -5.17889 6.57077
lclavicle -4.17821e-014 3.65764e-014
lhumerus -45.0613 15.0553 81.3821
lradius 25.8458
lwrist -5.99413
lhand -9.64948 29.2904
lfingers 7.12502
lthumb 16.3212 58.6236
rclavicle -4.17821e-014 3.65764e-014
rhumerus -25.0399 0.709732 -79.2229
rradius 36.0965
rwrist -3.39305
rhand -22.5346 12.8806
rfingers 7.12502
rthumb 3.89255 -17.0636
